<mxfile host="app.diagrams.net" modified="2024-05-01T10:19:15.255Z" agent="Mozilla/5.0 (X11; Linux x86_64) AppleWebKit/537.36 (KHTML, like Gecko) Chrome/122.0.0.0 Safari/537.36" version="24.3.1" etag="klzUfkLDXc1TO2D05Mks" type="github">
  <diagram name="Page-1" id="cygNIWai32VLK5G1YmAd">
    <mxGraphModel>
      <root>
        <mxCell id="0" />
        <mxCell id="1" parent="0" />
      </root>
    </mxGraphModel>
  </diagram>
</mxfile>
